<?xml version="1.0" standalone="no"?>
<!DOCTYPE svg PUBLIC "-//W3C//DTD SVG 20010904//EN"
 "http://www.w3.org/TR/2001/REC-SVG-20010904/DTD/svg10.dtd">
<svg version="1.0" xmlns="http://www.w3.org/2000/svg"
 width="460.000000pt" height="460.000000pt" viewBox="0 0 460.000000 460.000000"
 preserveAspectRatio="xMidYMid meet">
<metadata>
Created by potrace 1.14, written by Peter Selinger 2001-2017
</metadata>
<g transform="translate(0.000000,460.000000) scale(0.100000,-0.100000)"
fill="#000000" stroke="none">
<path d="M2030 4584 c-413 -54 -776 -198 -1100 -438 -521 -386 -849 -963 -918
-1611 -14 -135 -7 -454 12 -565 3 -14 7 -41 10 -60 5 -31 12 -70 32 -160 3
-14 9 -38 14 -55 5 -16 19 -61 31 -100 69 -222 189 -457 339 -660 86 -116 116
-151 225 -260 366 -369 833 -594 1365 -659 110 -13 440 -15 518 -2 18 3 52 8
75 11 23 3 49 8 57 10 8 2 32 6 54 10 238 35 586 177 826 338 385 257 680 616
858 1044 54 131 112 324 128 428 3 22 7 42 9 45 2 3 6 28 9 55 4 28 9 61 12
75 9 43 12 411 4 490 -10 89 -18 146 -25 180 -3 14 -8 39 -11 55 -53 303 -220
672 -420 932 -165 215 -348 387 -572 536 -93 61 -303 172 -393 207 -30 11 -63
24 -74 29 -89 39 -357 104 -479 117 -33 4 -65 9 -70 12 -21 12 -415 9 -516 -4z"/>
</g>
</svg>
